<?xml version="1.0" standalone="no"?>
<!DOCTYPE svg PUBLIC "-//W3C//DTD SVG 20010904//EN"
 "http://www.w3.org/TR/2001/REC-SVG-20010904/DTD/svg10.dtd">
<svg version="1.0" xmlns="http://www.w3.org/2000/svg"
 width="240.000000pt" height="250.000000pt" viewBox="0 0 240.000000 250.000000"
 preserveAspectRatio="xMidYMid meet">
<metadata>
Created by potrace 1.13, written by Peter Selinger 2001-2015
</metadata>
<g transform="translate(0.000000,250.000000) scale(0.100000,-0.100000)"
fill="#000000" stroke="none">
<path d="M1481 2049 c-135 -24 -276 -92 -394 -191 l-72 -60 -11 54 c-25 125
-81 171 -229 188 -134 16 -312 -11 -437 -67 -64 -28 -68 -36 -68 -136 0 -63 2
-68 26 -77 14 -6 46 -10 71 -10 38 0 171 -19 181 -25 5 -4 -117 -835 -152
-1040 -44 -249 -51 -235 113 -235 64 0 145 5 181 11 88 14 168 51 175 81 2 13
27 227 55 475 l50 453 39 35 c108 98 210 164 323 210 55 22 57 23 74 4 19 -22
33 -83 34 -154 0 -60 -31 -240 -106 -620 -63 -317 -66 -367 -22 -433 43 -64
101 -86 223 -85 181 2 373 67 523 177 72 54 77 72 37 152 -37 75 -55 81 -151
51 -87 -28 -174 -43 -174 -32 0 5 20 111 45 237 94 477 119 746 82 855 -24 70
-84 135 -149 163 -60 26 -181 35 -267 19z"/>
</g>
</svg>
