<?xml version="1.0" encoding="UTF-8" standalone="no"?>
<svg width="185px" height="164px" viewBox="0 0 185 164" version="1.1" xmlns="http://www.w3.org/2000/svg" xmlns:xlink="http://www.w3.org/1999/xlink">
    <!-- Generator: Sketch 40 (33762) - http://www.bohemiancoding.com/sketch -->
    <title>Shape</title>
    <desc>Created with Sketch.</desc>
    <defs>
        <linearGradient x1="50%" y1="0%" x2="50%" y2="100%" id="linearGradient-1">
            <stop stop-color="#B4ED50" offset="0%"></stop>
            <stop stop-color="#41D07A" offset="100%"></stop>
        </linearGradient>
    </defs>
    <g id="Page-1" stroke="none" stroke-width="1" fill="none" fill-rule="evenodd">
        <g id="Group" transform="translate(92.500000, 81.400000) scale(1, -1) translate(-92.500000, -81.400000) translate(0.000000, -0.600000)" fill="url(#linearGradient-1)">
            <path d="M121.1,162.3 C107.6,159.9 93.5,153.1 81.7,143.2 L74.5,137.2 L73.4,142.6 C70.9,155.1 65.3,159.7 50.5,161.4 C37.1,163 19.3,160.3 6.8,154.7 C0.4,151.9 0,151.1 0,141.1 C0,134.8 0.2,134.3 2.6,133.4 C4,132.8 7.2,132.4 9.7,132.4 C13.5,132.4 26.8,130.5 27.8,129.9 C28.3,129.5 16.1,46.4 12.6,25.9 C8.2,1 7.5,2.4 23.9,2.4 C30.3,2.4 38.4,2.9 42,3.5 C50.8,4.9 58.8,8.6 59.5,11.6 C59.7,12.9 62.2,34.3 65,59.1 L70,104.4 L73.9,107.9 C84.7,117.7 94.9,124.3 106.2,128.9 C111.7,131.1 111.9,131.2 113.6,129.3 C115.5,127.1 116.9,121 117,113.9 C117,107.9 113.9,89.9 106.4,51.9 C100.1,20.2 99.8,15.2 104.2,8.6 C108.5,2.2 114.3,-6.11038997e-14 126.5,0.1 C144.6,0.3 163.8,6.8 178.8,17.8 C186,23.2 186.5,25 182.5,33 C178.8,40.5 177,41.1 167.4,38.1 C158.7,35.3 150,33.8 150,34.9 C150,35.4 152,46 154.5,58.6 C163.9,106.3 166.4,133.2 162.7,144.1 C160.3,151.1 154.3,157.6 147.8,160.4 C141.8,163 129.7,163.9 121.1,162.3 L121.1,162.3 Z" id="Shape"></path>
        </g>
    </g>
</svg>
