<?xml version="1.0" encoding="UTF-8" standalone="no"?>
<svg width="313px" height="313px" viewBox="0 0 313 313" version="1.1" xmlns="http://www.w3.org/2000/svg" xmlns:xlink="http://www.w3.org/1999/xlink">
    <!-- Generator: Sketch 40 (33762) - http://www.bohemiancoding.com/sketch -->
    <title>Group</title>
    <desc>Created with Sketch.</desc>
    <defs>
        <linearGradient x1="50%" y1="0%" x2="50%" y2="98.6806441%" id="linearGradient-1">
            <stop stop-color="#B4ED50" offset="0%"></stop>
            <stop stop-color="#41D07A" offset="100%"></stop>
        </linearGradient>
    </defs>
    <g id="Page-1" stroke="none" stroke-width="1" fill="none" fill-rule="evenodd">
        <g id="Group" transform="translate(156.500000, 156.500000) scale(1, -1) translate(-156.500000, -156.500000) ">
            <circle id="Oval" fill="url(#linearGradient-1)" cx="156.5" cy="156.5" r="156.5"></circle>
            <path d="M185.1,237.3 C171.6,234.9 157.5,228.1 145.7,218.2 L138.5,212.2 L137.4,217.6 C134.9,230.1 129.3,234.7 114.5,236.4 C101.1,238 83.3,235.3 70.8,229.7 C64.4,226.9 64,226.1 64,216.1 C64,209.8 64.2,209.3 66.6,208.4 C68,207.8 71.2,207.4 73.7,207.4 C77.5,207.4 90.8,205.5 91.8,204.9 C92.3,204.5 80.1,121.4 76.6,100.9 C72.2,76 71.5,77.4 87.9,77.4 C94.3,77.4 102.4,77.9 106,78.5 C114.8,79.9 122.8,83.6 123.5,86.6 C123.7,87.9 126.2,109.3 129,134.1 L134,179.4 L137.9,182.9 C148.7,192.7 158.9,199.3 170.2,203.9 C175.7,206.1 175.9,206.2 177.6,204.3 C179.5,202.1 180.9,196 181,188.9 C181,182.9 177.9,164.9 170.4,126.9 C164.1,95.2 163.8,90.2 168.2,83.6 C172.5,77.2 178.3,75 190.5,75.1 C208.6,75.3 227.8,81.8 242.8,92.8 C250,98.2 250.5,100 246.5,108 C242.8,115.5 241,116.1 231.4,113.1 C222.7,110.3 214,108.8 214,109.9 C214,110.4 216,121 218.5,133.6 C227.9,181.3 230.4,208.2 226.7,219.1 C224.3,226.1 218.3,232.6 211.8,235.4 C205.8,238 193.7,238.9 185.1,237.3 L185.1,237.3 Z" id="Shape" fill="#FFFFFF"></path>
        </g>
    </g>
</svg>